# xmcd
#
# Track frame offsets:
#	150
#	8845
#	17592
#	30517
#	42397
#	53812
#	64027
#	76452
#	88930
#	101125
#	113067
#	125102
#	135590
#	147097
#	159157
#	169755
#
# Disc length: 2407
#
# Revision: 2
# Processed by: cddbd v1.5.1PL0 Copyright (c) Steve Scherf et al.
# Submitted via: EasyCDDAExtractor 6.0.0.1
# Normalized: r1:DSETVAR1
#
DISCID=ce096510
DTITLE=Various Artist - Country Love
DYEAR=1900
DGENRE=Country
TTITLE0=Billie Jo Spears - You're My Man
TTITLE1=Waylon Jennings - Love's Gonna Live Here
TTITLE2=Lynn Anderson - Rose Garden
TTITLE3=Roy Drusky - There Hearts In A Tangle
TTITLE4=Anne Murray - Last Thing On My Mind
TTITLE5=Faron Young - Hello Walls
TTITLE6=Willie Nelson - I Can't Find The Time
TTITLE7=Lynn Anderson - Stand By Your Man
TTITLE8=Waylon Jennings - Don't Think Twice
TTITLE9=Billie Jo Spears - Ease The Want In Me
TTITLE10=Anne Murray - All The Time
TTITLE11=Ferlin Husky - Wings Of A Dove
TTITLE12=George Jones - A House Without Love Is Not A Home
TTITLE13=Dolly Parton - Making Believe
TTITLE14=Tex Ritter - Have I Stayed Away Too Long
TTITLE15=Various Artist - Gone
EXTD=
EXTT0=
EXTT1=
EXTT2=
EXTT3=
EXTT4=
EXTT5=
EXTT6=
EXTT7=
EXTT8=
EXTT9=
EXTT10=
EXTT11=
EXTT12=
EXTT13=
EXTT14=
EXTT15=
PLAYORDER=
